
        <svg xmlns="http://www.w3.org/2000/svg" xmlns:xlink="http://www.w3.org/1999/xlink" version="1.1" width="3170.6118274499545" height="482.45587276610615" viewBox="0 0 3170.6118274499545 482.45587276610615">
			
			<g transform="scale(8.530591372497732) translate(10, 10)">
				<defs id="SvgjsDefs1196"/><g id="SvgjsG1197" featureKey="symbolFeature-0" transform="matrix(1.6260830030566822,0,0,1.6260830030566822,-6.788610733873839,-19.550395561163597)" fill="#000"><g xmlns="http://www.w3.org/2000/svg"><path d="M44.139,18.234c-0.306-1.215-2.564-1.814-5.987-1.834v-1.9c0-1.37-1.107-2.477-2.478-2.477H14.017   c-1.367,0-2.475,1.107-2.475,2.477v7.909c-4.796,2.116-7.725,4.324-7.332,5.89c0.652,2.592,10.122,2.439,21.149-0.34   C36.386,25.179,44.791,20.824,44.139,18.234z M12.952,14.431c0-0.477,0.385-0.862,0.858-0.862h22.415   c0.476,0,0.855,0.385,0.855,0.862v8.341c-3.029,1.516-7.22,3.037-11.963,4.232c-0.061,0.016-0.119,0.028-0.179,0.043H13.811   c-0.474,0-0.858-0.386-0.858-0.859V14.431z M6.12,27.309c-0.32-1.275,1.813-3.026,5.422-4.755v5.97c0,0.153,0.032,0.296,0.06,0.439   C8.465,28.954,6.398,28.41,6.12,27.309z M38.151,22.209v-5.536c2.2,0.171,3.613,0.696,3.836,1.593   C42.259,19.341,40.78,20.754,38.151,22.209z"/><path d="M13.947,14.085c0,0-0.412,0-0.412,0.827v9.55c0.192-6.008,4.55-10.376,4.55-10.376H13.947z"/><path d="M37.081,26.188c0,0.474-0.38,0.859-0.855,0.859h-5.329c-1.744,0.561-3.553,1.088-5.377,1.549   c-0.117,0.029-0.23,0.053-0.348,0.082c0.134,0.102,0.225,0.252,0.225,0.428c0,0.306-0.246,0.552-0.551,0.552   c-0.306,0-0.552-0.246-0.552-0.552c0-0.082,0.021-0.16,0.06-0.229c-4.146,0.984-8.101,1.616-11.474,1.835   C13.222,30.888,13.604,31,14.017,31h7.527v1.563l3.853,0.535h-3.93c-0.072,0.171-0.2,0.32-0.369,0.417l-1.822,0.989h11.14   l-1.819-0.989c-0.278-0.152-0.449-0.444-0.449-0.76V31h7.527c1.37,0,2.478-1.107,2.478-2.477v-4.286   c-0.348,0.166-0.701,0.327-1.07,0.487V26.188z"/><path d="M13.535,24.462c0,0.088,0,0.145,0,0.145s0.008-0.045,0.024-0.128C13.551,24.473,13.54,24.467,13.535,24.462z"/></g></g><g id="SvgjsG1198" featureKey="nameFeature-0" transform="matrix(0.5031186224070014,0,0,0.5031186224070014,85,6.002824543089713)" fill="#000"><path d="M0 11.96 l4.12 0 l0 25.4 l-1.48 0 l0 -23.96 l-1.2 0 l0 25.16 l13.16 0 l0 -3.84 l-6.52 0 l0 -1.44 l7.96 0 l0 6.72 l-16.04 0 l0 -28.04 z M5.44 11.96 l1.44 0 l0 23.92 l6.44 0 l0 1.48 l-7.88 0 l0 -25.4 z M24.925 12.079999999999998 l1.44 0 l0 26.48 l15.32 0 l0 -4 l-11.28 0 l0 -3.84 l1.44 0 l0 2.4 l11.28 0 l0 6.88 l-18.2 0 l0 -27.92 z M27.645 12.079999999999998 l15.28 0 l0 6.84 l-9.6 0 l0 -1.44 l8.16 0 l0 -3.96 l-12.4 0 l0 11.56 l9.32 0 l0 1.44 l-10.76 0 l0 -14.44 z M27.645 27.8 l12.16 0 l0 -4 l-9.4 0 l0 -9.08 l9.68 0 l0 1.44 l-8.24 0 l0 6.2 l9.4 0 l0 6.88 l-12.16 0 l0 6.64 l11.2 0 l0 1.44 l-12.64 0 l0 -9.52 z M55.45 37.52 l1.76 0 l1.4 -3.36 l10.44 0.04 l2.56 5.8 l7.36 -0.04 l-12.6 -27.96 l-2.56 0 l-12.52 27.96 l7.8 0 l1.36 -3.2 l7.96 0 l-0.6 -1.36 l-8.24 0 l-1.28 3.16 l-4.76 0 l11.08 -25.2 l0.96 0 l11.12 25.2 l-4.24 0 l-2.56 -5.72 l-12.4 0 z M60.21 30.48 l4.88 -11.64 l8.2 18.64 l1.64 0 l-9.84 -21.92 l-7.2 16.16 l11.6 0 l-4.4 -9.72 l-3.04 7.32 l1.56 0 l1.48 -3.64 l2.2 4.8 l-7.08 0 z M106.53500000000001 38.56 l-4.6 0 l-5.52 -10.28 l-3.72 0.04 l0 10.24 l-4.04 0 l0 -26.56 l-1.44 0 l0 28 l6.96 0 l0 -10.28 l1.4 0 l5.48 10.28 l7.88 0 l-5.52 -10.32 l-1.32 0.52 z M97.01500000000001 13.440000000000001 c5.8 0 9.08 2.6 9.08 7.36 c0 4.32 -2.6 6.96 -7.12 7.44 l-1.08 0.12 l5 9.24 l1.64 0 l-4.36 -8.12 c4.8 -0.84 7.36 -3.76 7.36 -8.68 c0 -1.64 -0.36 -3.12 -1.04 -4.44 c-1.6 -2.84 -4.88 -4.36 -9.48 -4.36 l-7.08 0 l0 25.56 l1.44 0 l0 -24.12 l5.64 0 z M96.69500000000001 27.04 c5.48 0 8.08 -1.88 8.08 -6.04 c0 -3.96 -2.72 -6.2 -7.08 -6.2 l-5.04 0 l0 4.2 l4.6 0 c2.12 0 3.2 0.6 3.2 1.8 c0 1.4 -1.32 2.08 -4 2.08 l-2.32 0 l0 -2.48 l-1.48 0 l0 3.92 l3.8 0 c3.56 0 5.44 -1.24 5.44 -3.52 c0 -0.72 -0.16 -1.28 -0.52 -1.72 c-0.68 -1 -2.04 -1.48 -4.12 -1.48 l-3.12 0 l0 -1.36 l3.56 0 c3.56 0 5.64 1.72 5.64 4.76 c0 3.16 -2.12 4.64 -6.64 4.64 l-4 0 l0 1.4 l4 0 z M135.78 28.6 l-16.36 -16.6 l-2 0 l19.8 20.12 l0 -17.32 l-1.44 0 l0 13.8 z M134.46 25.4 l0 -12 l4.08 0 l0 25.16 l-0.68 0 l-0.16 -0.16 l-18.32 -18.56 l0 20.16 l4.2 0 l0 -11.8 l-1.48 -1.52 l0 11.88 l-1.28 0 l0 -15.2 l16.6 16.64 l2.56 0 l0 -28 l-6.96 0 l0 11.84 z M118.06 40 l0 -23.4 l19.16 19.44 l0 -2.12 l-20.56 -20.76 l0 26.84 l1.4 0 z M179.71 38.6 l-0.72 0 l-0.32 -1.08 l-5.84 -18.76 l-1.6 -5.36 l1.24 0 l6.24 20.32 l0.64 2.16 l0.24 0 l0.76 -1.88 l-0.76 -2.32 l-6.04 -19.68 l-4.28 0 l8.64 28 l2.76 0 l3.64 -8.68 l0.76 -1.84 l1.04 -2.6 l-0.76 -1.8 l-1.08 2.56 l-0.76 1.84 z M174.83 12 l6.2 20.4 l4.4 -10.52 l7.92 18.16 l1.56 0 l-9.48 -21.8 l-4.24 9.76 l-4.84 -16 l-1.52 0 z M195.15 24.36 l3.36 -10.96 l4.08 0 l-0.36 1.16 l-4.08 13.36 l-2.32 7.56 l-9.84 -22.72 l-1.04 0 l-4.24 9.84 l0.64 2.12 l4.12 -9.52 l1.28 2.92 l8.96 20.76 l0.36 0.8 l8.44 -27.68 l-7.08 0 l-3.12 10.36 z M195.39000000000001 27.84 l-0.84 -2 l-5.68 -13.08 l-1.56 0 l8.32 19.2 l5.36 -17.48 l-1.52 0 z M212.995 12 l4.2 0 l0 25.32 l-1.44 0 l0 -23.88 l-1.32 0 l0 25.12 l4.04 0 l0 -26.56 l1.44 0 l0 28 l-6.92 0 l0 -28 z M237.60000000000002 17.2 l9.56 0 l0 -3.8 l-17 0 l0 1.24 l15.64 0 l0 1.44 l-17.08 0 l0 -4.12 l19.88 0 l0 6.68 l-9.56 0 l0 18.72 l-1.44 0 l0 -20.16 z M234.92000000000002 18.64 l-6.2 0 l0 -1.44 l7.64 0 l0 21.32 l4 0 l0 -18.64 l1.44 0 l0 20.12 l-6.88 0 l0 -21.36 z M257.285 12 l6.96 0 l0 9.24 l-1.48 0 l0 -7.76 l-4.04 0 l0 25.04 l4.04 0 l0 -7.72 l1.48 0 l0 9.2 l-6.96 0 l0 -28 z M260.045 14.64 l1.44 0 l0 7.84 l12.2 0 l0 -10.48 l1.4 0 l0 11.88 l-15.04 0 l0 -9.24 z M279.365 13.48 l-1.36 0 l0 10.52 l-1.44 0 l0 -12 l4.2 0 l0 28 l-1.4 0 l0 -26.52 z M273.68500000000006 29.52 l-12.2 0 l0 8.04 l-1.48 0 l0 -9.52 l15.08 0 l0 10.48 l1.48 0 l0 -11.8 l-16.56 0 l0 -1.4 l18 0 l0 14.68 l-4.32 0 l0 -10.48 z M327.61500000000007 13.440000000000001 l-12.52 23.84 l1.72 0 l13.16 -25.28 l-17.36 0 l0 1.44 l15 0 z M318.17500000000007 37.28 l9.92 0 l0 -1.44 l-7.52 0 l12.48 -23.84 l-1.64 0 z M329.4550000000001 34.64 l0 3.92 l-16.44 0 l12.56 -23.96 l-12.96 0 l0 4.16 l7.76 0 l0.72 -1.44 l-7.04 0 l0 -1.28 l9.12 0 l-12.52 23.96 l20.24 0 l0 -6.8 l-7.44 0 l-0.76 1.44 l6.76 0 z M354.9800000000001 40 c-2.44 0 -4.76 -0.64 -6.96 -1.92 c-4.4 -2.52 -7.12 -7.16 -7.12 -12.12 c0 -2.48 0.64 -4.8 1.92 -7 c2.52 -4.32 7.24 -7.04 12.16 -7.04 c2.44 0 4.8 0.64 7 1.88 c4.4 2.56 7.04 7.32 7.04 12.16 c0 2.44 -0.64 4.72 -1.88 6.92 c-2.56 4.4 -7.2 7.12 -12.16 7.12 z M354.9800000000001 13.32 c-2.28 0 -4.4 0.56 -6.32 1.68 c-3.88 2.24 -6.28 6.36 -6.28 10.96 c0 2.28 0.56 4.4 1.68 6.32 c2.24 3.88 6.32 6.28 10.92 6.28 c2.28 0 4.4 -0.56 6.36 -1.68 c3.88 -2.24 6.28 -6.32 6.28 -10.92 c0 -2.28 -0.56 -4.4 -1.68 -6.36 c-2.24 -3.88 -6.48 -6.28 -10.96 -6.28 z M354.9800000000001 37.28 c-2 0 -3.88 -0.52 -5.68 -1.52 c-3.56 -2.04 -5.76 -5.76 -5.76 -9.8 c0 -2.04 0.52 -3.92 1.52 -5.68 c2.04 -3.52 5.64 -5.6 9.92 -5.6 c2.16 0 4.12 0.48 5.84 1.44 c3.44 1.92 5.44 5.52 5.44 9.84 c0 2.04 -0.48 3.92 -1.44 5.64 c-1.96 3.48 -5.8 5.68 -9.84 5.68 z M354.9800000000001 16.08 c-1.8 0 -3.44 0.44 -4.96 1.32 c-3.08 1.76 -4.96 4.92 -4.96 8.56 c0 1.76 0.44 3.4 1.36 4.92 c1.76 3.08 4.88 5 8.56 5 c1.8 0 3.44 -0.44 4.96 -1.36 c3 -1.76 4.92 -5.04 4.92 -8.56 c0 -1.8 -0.44 -3.48 -1.32 -5 c-1.76 -3.04 -5.08 -4.88 -8.56 -4.88 z M354.9800000000001 34.68 c-1.56 0 -3.04 -0.4 -4.36 -1.16 c-2.68 -1.56 -4.4 -4.52 -4.4 -7.56 c0 -1.56 0.4 -3.04 1.2 -4.4 c1.56 -2.72 4.32 -4.28 7.56 -4.28 c1.56 0 3 0.4 4.32 1.16 c2.68 1.56 4.24 4.28 4.24 7.52 c0 1.6 -0.36 3.04 -1.08 4.36 c-1.48 2.64 -4.32 4.36 -7.48 4.36 z M354.9800000000001 18.72 c-1.28 0 -2.48 0.32 -3.6 0.96 c-2.24 1.32 -3.68 3.68 -3.68 6.28 c0 1.28 0.32 2.48 0.96 3.56 c1.28 2.24 3.6 3.6 6.32 3.6 c1.32 0 2.56 -0.32 3.64 -0.96 c2.2 -1.28 3.52 -3.64 3.52 -6.2 c0 -1.32 -0.32 -2.52 -0.96 -3.64 c-1.28 -2.24 -3.64 -3.6 -6.2 -3.6 z M395.7450000000001 28.6 l-16.36 -16.6 l-2 0 l19.8 20.12 l0 -17.32 l-1.44 0 l0 13.8 z M394.4250000000001 25.4 l0 -12 l4.08 0 l0 25.16 l-0.68 0 l-0.16 -0.16 l-18.32 -18.56 l0 20.16 l4.2 0 l0 -11.8 l-1.48 -1.52 l0 11.88 l-1.28 0 l0 -15.2 l16.6 16.64 l2.56 0 l0 -28 l-6.96 0 l0 11.84 z M378.02500000000015 40 l0 -23.4 l19.16 19.44 l0 -2.12 l-20.56 -20.76 l0 26.84 l1.4 0 z M411.5500000000002 37.52 l1.76 0 l1.4 -3.36 l10.44 0.04 l2.56 5.8 l7.36 -0.04 l-12.6 -27.96 l-2.56 0 l-12.52 27.96 l7.8 0 l1.36 -3.2 l7.96 0 l-0.6 -1.36 l-8.24 0 l-1.28 3.16 l-4.76 0 l11.08 -25.2 l0.96 0 l11.12 25.2 l-4.24 0 l-2.56 -5.72 l-12.4 0 z M416.3100000000002 30.48 l4.88 -11.64 l8.2 18.64 l1.64 0 l-9.84 -21.92 l-7.2 16.16 l11.6 0 l-4.4 -9.72 l-3.04 7.32 l1.56 0 l1.48 -3.64 l2.2 4.8 l-7.08 0 z M456.07500000000016 37.44 l1.44 0 l-0.04 -11.64 l8.52 -12.36 l1.56 0 l-8.68 12.44 l0 12.68 l-4.12 0 l0.04 -12.68 l-9.72 -13.88 l-1.76 0 l9.96 14.32 l0 13.68 l7.04 0 l0 -13.68 l10 -14.32 l-5.04 0 l-9.2 13.32 l0 12.12 z M461.95500000000015 12 l-6.68 9.8 l-5.92 -8.36 l1.56 0 l4.48 6.32 l0.88 -1.28 l-4.6 -6.48 l-5.04 0 l7.96 11.32 l0.68 1.04 l8.44 -12.36 l-1.76 0 z M478.1200000000002 12.079999999999998 l1.44 0 l0 26.48 l15.32 0 l0 -4 l-11.28 0 l0 -3.84 l1.44 0 l0 2.4 l11.28 0 l0 6.88 l-18.2 0 l0 -27.92 z M480.8400000000002 12.079999999999998 l15.28 0 l0 6.84 l-9.6 0 l0 -1.44 l8.16 0 l0 -3.96 l-12.4 0 l0 11.56 l9.32 0 l0 1.44 l-10.76 0 l0 -14.44 z M480.8400000000002 27.8 l12.16 0 l0 -4 l-9.4 0 l0 -9.08 l9.68 0 l0 1.44 l-8.24 0 l0 6.2 l9.4 0 l0 6.88 l-12.16 0 l0 6.64 l11.2 0 l0 1.44 l-12.64 0 l0 -9.52 z M526.1250000000002 16.04 c-2.4 -2.52 -5.48 -4 -8.48 -4 l-11.72 0 l0 1.44 l11.72 0.04 c1.88 0 3.68 0.6 5.4 1.76 c3.36 2.36 5.6 6.6 5.6 10.72 c0 2.16 -0.48 4.16 -1.48 6.04 c-2 3.72 -6.04 6.44 -9.52 6.44 l-10.28 0 l0 -22.44 l9.96 0.04 c1.44 0 2.84 0.44 4.16 1.36 c2.68 1.8 4.44 5.24 4.44 8.56 c0 2.44 -1.04 4.96 -2.92 6.92 c-1.76 1.76 -3.88 2.88 -5.64 2.88 l-4.56 0 l0.04 -15.8 l-1.4 0 l-0.04 16.52 l0 0.72 l5.96 0 c2.2 0 4.76 -1.24 6.72 -3.32 c2.12 -2.28 3.28 -5.08 3.28 -7.92 c0 -2.88 -1.12 -5.76 -3.16 -8 c-2.2 -2.2 -4.6 -3.4 -6.88 -3.4 l-11.4 0 l0 25.36 l11.72 0 c2.88 0 6 -1.48 8.36 -4 c2.6 -2.68 4.04 -6.24 4.04 -9.96 s-1.36 -7.24 -3.92 -9.96 z M517.2050000000002 34.519999999999996 c1.12 0 2.28 -0.44 3.52 -1.28 c2.44 -1.72 4 -4.6 4 -7.28 c0 -1.44 -0.36 -2.84 -1.04 -4.2 c-1.4 -2.68 -3.92 -4.36 -6.48 -4.36 l-8.6 0.04 l0.04 19.88 l1.44 0 l0 -18.48 l7.12 -0.04 c0.92 0 1.88 0.36 2.88 1.04 c2.04 1.44 3.2 3.68 3.2 6.12 c0 1.64 -0.76 3.48 -2 4.88 s-2.76 2.24 -4.08 2.24 l-2.84 0 l0 1.44 l2.84 0 z"/></g>
			</g>
		</svg>
	